<svg width="15" height="15" viewBox="0 0 20 20" fill="none" xmlns="http://www.w3.org/2000/svg">
  <path
    d="M10 20C16.48 20 20 18.2473 20 17.3349V15.2461C17.68 16.4706 13.8133 17.0948 10 17.0948C6.18667 17.0948 2.32 16.4706 0 15.2221V17.3109C0 18.2233 3.52 20 10 20Z"
    fill="white" />
  <path
    d="M10 15.102C16.48 15.102 20 13.3493 20 12.437V10.3481C17.68 11.5726 13.8133 12.2209 10 12.2209C6.18667 12.2209 2.32 11.5966 0 10.3481V12.437C0 13.3493 3.52 15.102 10 15.102Z"
    fill="white" />
  <path
    d="M20 5.45018C17.68 6.67467 13.8133 7.32293 10 7.32293C6.18667 7.32293 2.32 6.69868 0 5.45018V7.53902C0 8.45138 3.52 10.2041 10 10.2041C16.48 10.2041 20 8.45138 20 7.53902V5.45018Z"
    fill="white" />
  <path
    d="M10 5.33013C16.48 5.33013 20 3.57743 20 2.66507C20 1.7527 16.48 0 10 0C3.52 0 0 1.7527 0 2.66507C0 3.55342 3.52 5.33013 10 5.33013Z"
    fill="white" />
</svg>