<svg width="15" height="15" viewBox="0 0 20 20" fill="white" xmlns="http://www.w3.org/2000/svg">
  <path
    d="M18.1142 5.49512e-05C18.3624 -0.00184678 18.6085 0.0456298 18.8381 0.139722C19.0678 0.233814 19.2764 0.372642 19.4519 0.548126C19.6274 0.72361 19.7662 0.932245 19.8603 1.16189C19.9544 1.39153 20.0018 1.63759 19.9999 1.88576V18.1142C20.0018 18.3624 19.9544 18.6085 19.8603 18.8381C19.7662 19.0678 19.6274 19.2764 19.4519 19.4519C19.2764 19.6274 19.0678 19.7662 18.8381 19.8603C18.6085 19.9544 18.3624 20.0018 18.1142 19.9999H1.88576C1.63759 20.0018 1.39153 19.9544 1.16189 19.8603C0.932245 19.7662 0.72361 19.6274 0.548126 19.4519C0.372642 19.2764 0.233814 19.0678 0.139722 18.8381C0.0456298 18.6085 -0.00184678 18.3624 5.49512e-05 18.1142V1.88576C-0.00184678 1.63759 0.0456298 1.39153 0.139722 1.16189C0.233814 0.932245 0.372642 0.72361 0.548126 0.548126C0.72361 0.372642 0.932245 0.233814 1.16189 0.139722C1.39153 0.0456298 1.63759 -0.00184678 1.88576 5.49512e-05H18.1142ZM5.00003 15.3071H1.88576V18.1142H5.00003V15.3071ZM18.1071 15.3071H6.87859V18.1142H18.1142L18.1071 15.3071ZM5.00003 10.6214H1.88576V13.4357H5.00003V10.6214ZM18.1071 10.6214H6.87859V13.4357H18.1142L18.1071 10.6214ZM5.00003 5.94288H1.88576V8.75001H5.00003V5.94288ZM18.1071 5.94288H6.87859V8.75001H18.1142L18.1071 5.94288Z" />
</svg>